<svg xmlns="http://www.w3.org/2000/svg" viewBox="0 0 1905.55 1423.05"><defs><style>.cls-1{fill:#ccf0eb;}.cls-2{fill:#fe665e;}.cls-3{fill:#7c7c7c;}.cls-4{fill:#664d49;}.cls-5{fill:#fff;}.cls-6{fill:#fedada;}</style></defs><g id="Layer_2" data-name="Layer 2"><g id="Main_Objects" data-name="Main Objects"><g id="Image_background" data-name="Image background"><rect class="cls-1" x="760.51" y="418.06" width="917.26" height="102.87" rx="51.44"/><rect class="cls-1" y="418.06" width="640.05" height="102.87" rx="51.44"/><rect class="cls-1" x="1277.53" y="199.28" width="531.95" height="102.87" rx="51.44"/><rect class="cls-1" x="488.53" y="199.28" width="445.77" height="102.87" rx="51.44"/><rect class="cls-1" x="1018.85" y="199.28" width="172.2" height="102.87" rx="51.44"/><rect class="cls-1" x="1525.54" y="940.99" width="210.61" height="102.87" rx="51.44"/><rect class="cls-1" x="597.81" y="1320.17" width="596.43" height="102.87" rx="51.44"/><rect class="cls-1" x="336.35" y="1320.17" width="193.59" height="102.87" rx="51.44"/><rect class="cls-1" x="329.03" y="586.66" width="1176.47" height="102.87" rx="51.44"/><rect class="cls-1" x="523.34" y="763.82" width="1382.21" height="102.87" rx="51.44"/><rect class="cls-1" x="69.41" y="940.99" width="1382.21" height="102.87" rx="51.44"/><rect class="cls-1" x="263.3" y="1118.15" width="1414.47" height="102.87" rx="51.44"/><path class="cls-1" d="M1409.25,520.93a37.58,37.58,0,0,0,0,65.73h-500a35.2,35.2,0,0,0,0-65.73Z"/><path class="cls-1" d="M1028.05,1043.86c-14.42,7.51-23.38,21.81-23.33,37.27s9,29.56,23.33,37H425.45c16.67-6.1,27.57-21.32,27.22-37.93-.34-16.06-11.12-30.47-27.22-36.36Z"/><path class="cls-1" d="M1123.56,689.53c-12,7.5-19.39,21.81-19.35,37.27s7.46,29.56,19.35,37h-500c13.83-6.1,22.87-21.32,22.58-37.94-.28-16-9.22-30.47-22.58-36.35Z"/><path class="cls-1" d="M1373.58,866.69c-12,7.51-19.39,21.82-19.36,37.27s7.46,29.56,19.36,37H788.51c13.83-6.1,22.87-21.32,22.58-37.94-.28-16.06-9.22-30.47-22.58-36.36Z"/></g><path class="cls-1" d="M1497.25,1298.88a75.39,75.39,0,0,1,19.55,2.56,74.4,74.4,0,0,1,130,19.4,53.12,53.12,0,0,1,64.75,51.8c0,.63,0,1.25,0,1.87H1421.63A75.63,75.63,0,0,1,1497.25,1298.88Z"/><path class="cls-1" d="M293,155.72a77.73,77.73,0,0,0-20.19,2.64,76.83,76.83,0,0,0-134.28,20,54.85,54.85,0,0,0-66.86,53.5c0,.65,0,1.29,0,1.93H371A78.09,78.09,0,0,0,293,155.72Z"/><path class="cls-2" d="M780.36,1390.92a2.05,2.05,0,0,1-2.05-2.06v-59.18a2.06,2.06,0,0,1,4.11,0v59.18A2.06,2.06,0,0,1,780.36,1390.92Z"/><path class="cls-2" d="M810,1361.33H750.77a2.06,2.06,0,0,1,0-4.11H810a2.06,2.06,0,1,1,0,4.11Z"/><path class="cls-2" d="M1618.47,1085.06a2.08,2.08,0,0,1-1.46-.6l-16.81-16.82L1583.87,1084a2,2,0,0,1-2.91,0l-19.21-19.2-19,19a2.06,2.06,0,0,1-2.91-2.91l20.47-20.47a2.06,2.06,0,0,1,2.91,0l19.21,19.21,16.33-16.33a2.06,2.06,0,0,1,2.91,0l16.81,16.81,18-18a2.05,2.05,0,0,1,2.9,0l19.08,19.08a2.06,2.06,0,0,1-2.91,2.91L1638,1066.41l-18,18A2.05,2.05,0,0,1,1618.47,1085.06Z"/><path class="cls-2" d="M232.51,379.74a2.05,2.05,0,0,1-1.45-.6l-16.81-16.81-16.33,16.33a2.06,2.06,0,0,1-2.91,0L175.8,359.45l-19,19a2.05,2.05,0,1,1-2.91-2.9l20.47-20.47a2,2,0,0,1,1.45-.6,2,2,0,0,1,1.46.6l19.2,19.2L212.79,358a2.06,2.06,0,0,1,2.91,0l16.81,16.82,18.05-18a2.06,2.06,0,0,1,2.91,0l19.07,19.07a2.06,2.06,0,1,1-2.91,2.91L252,361.09,234,379.14A2.06,2.06,0,0,1,232.51,379.74Z"/><path class="cls-3" d="M953.13,1073.55a379.15,379.15,0,0,1-213-65.08A382.25,382.25,0,0,1,602,840.82a380.68,380.68,0,0,1,48.25-379.61l2.77,2.12c-50.69,66.27-77.48,145.51-77.48,229.17,0,208.19,169.38,377.57,377.57,377.57a374,374,0,0,0,164.19-37.47l1.51,3.14a378.41,378.41,0,0,1-79.37,28A382.89,382.89,0,0,1,953.13,1073.55Z"/><path class="cls-3" d="M1178.3,999.94l-2.06-2.81A380.21,380.21,0,0,0,1217.56,962l2.44,2.49A385.11,385.11,0,0,1,1178.3,999.94Z"/><path class="cls-3" d="M1289.72,871.3l-3.08-1.63A378.23,378.23,0,0,0,1330.7,692.5c0-208.2-169.37-377.58-377.57-377.58a376.13,376.13,0,0,0-206,61.08l-1.9-2.91a380.53,380.53,0,0,1,420.92,3.43,382,382,0,0,1,138.06,167.65,378.72,378.72,0,0,1,30,148.33,379.32,379.32,0,0,1-44.47,178.8Z"/><path class="cls-3" d="M1246.07,936.21,1243.4,934a380.23,380.23,0,0,0,23.38-31.21l2.89,1.94A383.34,383.34,0,0,1,1246.07,936.21Z"/><path class="cls-3" d="M683.79,427.89l-2.48-2.44a384.07,384.07,0,0,1,35.84-32.16l2.16,2.73A381.29,381.29,0,0,0,683.79,427.89Z"/><path class="cls-3" d="M810.4,1170.63a496.31,496.31,0,0,1-61.24-22.76l1.42-3.17a494.8,494.8,0,0,0,60.81,22.6Z"/><path class="cls-3" d="M631.42,1073.76a500.73,500.73,0,0,1-129.2-167.6,496.57,496.57,0,0,1-35.5-102.45A502.05,502.05,0,0,1,454.28,692.5c0-1.3,0-2.59,0-3.89l3.48,0c0,1.28,0,2.57,0,3.86a494.67,494.67,0,0,0,175.91,378.6Z"/><path class="cls-3" d="M721.12,1134.22a498.94,498.94,0,0,1-49-29.51l2-2.87a497.06,497.06,0,0,0,48.67,29.3Z"/><path class="cls-3" d="M953.13,1191.35a501.66,501.66,0,0,1-112.63-12.77l.79-3.39a498.18,498.18,0,0,0,111.84,12.68c273.15,0,495.37-222.22,495.37-495.37a492.75,492.75,0,0,0-36.22-186.29l3.22-1.31A496,496,0,0,1,1452,692.5,502.86,502.86,0,0,1,1441.85,793a498.61,498.61,0,0,1-388.18,388.18A502.23,502.23,0,0,1,953.13,1191.35Z"/><path class="cls-3" d="M1294.05,333.11c-8.67-8.23-17.76-16.26-27-23.85l2.21-2.7c9.33,7.65,18.49,15.74,27.22,24Z"/><path class="cls-3" d="M504.3,482.61l-3.15-1.48a498.66,498.66,0,0,1,736.5-198.44l-2,2.86a492.38,492.38,0,0,0-282.54-88.42C761.71,197.13,585.54,309.18,504.3,482.61Z"/><path class="cls-3" d="M1382.62,445.5A496.83,496.83,0,0,0,1322.14,362l2.6-2.32a500.76,500.76,0,0,1,60.89,84.07Z"/><path class="cls-3" d="M467.51,594.25l-3.41-.69a495.45,495.45,0,0,1,16.84-62.38l3.3,1.12A492,492,0,0,0,467.51,594.25Z"/><path class="cls-3" d="M868.16,86.61l-.48-3.45a624.19,624.19,0,0,1,85.45-5.88c6.07,0,12.17.08,18.12.26l-.1,3.48c-5.92-.17-12-.26-18-.26A620.35,620.35,0,0,0,868.16,86.61Z"/><path class="cls-3" d="M953.13,1307.72A616,616,0,0,1,396,953.86l3.15-1.48c100.44,213.74,317.88,351.86,554,351.86a620.44,620.44,0,0,0,65-3.42l.37,3.46A624.79,624.79,0,0,1,953.13,1307.72Z"/><path class="cls-3" d="M381.38,920.1A614.58,614.58,0,0,1,463.48,320l2.77,2.11C384.57,429.28,341.39,557.37,341.39,692.5a608.56,608.56,0,0,0,43.23,226.31Z"/><path class="cls-3" d="M485.48,298.11l-2.66-2.24A615.61,615.61,0,0,1,779.87,102l1,3.34A610.06,610.06,0,0,0,485.48,298.11Z"/><path class="cls-3" d="M1131,1281.62l-1-3.34c206.15-62.15,366-230.57,417.3-439.55l3.38.82A613.86,613.86,0,0,1,1399,1116.42a615.17,615.17,0,0,1-268,165.2Z"/><path class="cls-3" d="M1562.31,779.05l-3.45-.48a619.08,619.08,0,0,0,6-86.07c0-274.88-184.93-517.52-449.72-590.06l.92-3.35a611.22,611.22,0,0,1,180.66,83,616.27,616.27,0,0,1,265.58,597Z"/><path class="cls-3" d="M1073.21,92.54c-19.42-3.87-39.29-6.82-59.06-8.78l.34-3.46c19.88,2,39.87,4.93,59.4,8.82Z"/><path class="cls-2" d="M771,570.15,741.86,744.36H801s19.87-49.74,29.09-154.23Z"/><path class="cls-4" d="M830.82,588l-59.17-20a2.21,2.21,0,0,0-2.89,1.74L739.67,744a2.22,2.22,0,0,0,2.19,2.58H801a2.21,2.21,0,0,0,2.06-1.39c.13-.33,2.12-5.34,5.09-15.33.4-1.37.83-2.82,1.27-4.38,1.46-5.14,3.09-11.3,4.83-18.53,5.34-22.27,12.58-59,17.37-109.28q.21-2.2.42-4.44c.08-1,.17-1.93.26-2.91A2.2,2.2,0,0,0,830.82,588Zm-26.46,139c-2.29,7.79-4,12.82-4.87,15.08h-55l28.23-169,55,18.58C823,644.53,815.48,682.85,810,705.77c-1.76,7.35-3.43,13.63-4.92,18.84C804.82,725.46,804.58,726.27,804.36,727.06Z"/><path class="cls-2" d="M1140.8,575.86l29.6,178h-59.16s-20.38-53.56-29.6-158Z"/><path class="cls-4" d="M1172.59,753.52l-29.6-178a2.21,2.21,0,0,0-2.91-1.74l-59.16,20a2.22,2.22,0,0,0-1.5,2.3l.12,1.3.42,4.57c4.8,51.15,12.26,89.34,17.77,112.66q1.45,6.13,2.8,11.33c.43,1.68.86,3.28,1.27,4.82,4.2,15.6,7.2,23.54,7.36,24a2.22,2.22,0,0,0,2.07,1.43h59.17a2.23,2.23,0,0,0,2.19-2.59Zm-59.8-1.85c-1.1-3.15-3.89-11.45-7.39-24.71-.19-.72-.38-1.45-.57-2.2q-1.35-5.21-2.81-11.35c-5.61-23.78-13.26-63.13-18-116l55-18.58,28.75,172.87Z"/><path class="cls-4" d="M914.17,596.26a2.22,2.22,0,0,1-1.92,2.18,1.51,1.51,0,0,1-.3,0h0l-15.65-.15-64.63-.64-1.56,0a2.27,2.27,0,0,1-.65-.1,2.22,2.22,0,0,1,.4-4.32,1.51,1.51,0,0,1,.3,0l1.93,0,79.61.79h.3A2.23,2.23,0,0,1,914.17,596.26Z"/><path class="cls-4" d="M1018.86,756l-.17.25a51.44,51.44,0,0,1-3.72,4.91c-10.93,12.79-27.64,19.53-49.75,20.06-1,0-1.9,0-2.86,0-19,0-42-4.4-68.17-13.1-39.73-13.17-75.86-32.61-86-38.27l-2-1.12-.84-.48a2.17,2.17,0,0,1-1-1.2,2.22,2.22,0,0,1,.17-1.84,2.09,2.09,0,0,1,.53-.61,2.23,2.23,0,0,1,2.39-.26l.12.07,1.87,1.06c8.58,4.82,45.5,25,86.21,38.46,27,9,50.42,13.27,69.49,12.82,21.18-.51,37-7,47.07-19.24a48.93,48.93,0,0,0,2.95-4,2.22,2.22,0,1,1,3.7,2.45Z"/><path class="cls-4" d="M1039.78,730.56c-4,9.76-11.21,16.83-21.35,21-7.37,3-16.24,4.57-26.51,4.57s-22-1.52-35-4.57a243.54,243.54,0,0,1-34.61-10.91,2.22,2.22,0,0,1,1.72-4.09c.59.25,59.44,24.62,92.72,10.9a33.47,33.47,0,0,0,18.92-18.6,2.22,2.22,0,0,1,4.11,1.69Z"/><path class="cls-4" d="M1055.38,706.38c-4,9.77-11.21,16.84-21.35,21-7.38,3-16.24,4.56-26.51,4.56s-22-1.52-35-4.56a243.59,243.59,0,0,1-34.6-10.91,2.22,2.22,0,0,1,1.71-4.1c.59.25,59.44,24.63,92.72,10.9a33.43,33.43,0,0,0,18.27-17.12c.23-.49.44-1,.65-1.48a2.22,2.22,0,0,1,4.11,1.69Z"/><path class="cls-4" d="M1061.58,701.16a21.72,21.72,0,0,1-6.19,3.57,33.46,33.46,0,0,1-4.77,1.44,58.37,58.37,0,0,1-12.85,1.26q-16,0-40.44-6A426.35,426.35,0,0,1,951.48,687a2.22,2.22,0,1,1,1.61-4.14,421.66,421.66,0,0,0,45.34,14.24c30.9,7.65,51.75,7.88,60.29.67,4.09-3.45,5.36-8.67,3.86-16-.58-2.86-7-11.3-54.33-28-26.42-9.33-52.76-16.67-53-16.75a1.61,1.61,0,0,1-.33-.12,2.22,2.22,0,0,1,1.52-4.15c.26.07,26.73,7.44,53.29,16.82,15.64,5.53,28.27,10.66,37.53,15.27,12.46,6.19,18.72,11.29,19.69,16C1068.76,689.81,1067,696.62,1061.58,701.16Z"/><path class="cls-4" d="M1082,597.73l-.2,0-2.26-.37c-37.32-6.1-90.54-12.23-136.9-8a235.71,235.71,0,0,0-31,4.73,157.62,157.62,0,0,0-15.4,4.29c-28.86,9.7-46,26.16-51,49.17a12.71,12.71,0,0,0,4.07,12.8c2.93,2.64,7.22,4.63,12.75,5.91a4.43,4.43,0,0,0,.85.06c4,0,17.75-2.4,30.47-6,18.83-5.31,30.32-11.49,34.18-18.36l26.8-4.79a2,2,0,0,0,.54-.17,2.19,2.19,0,0,0,1.25-2.4,2.22,2.22,0,0,0-1.25-1.63,2.27,2.27,0,0,0-1.32-.17l-27.89,5a2.21,2.21,0,0,0-1.64,1.29c-2.55,5.78-13.62,11.74-31.18,16.77-14.42,4.13-28,6.14-29.91,6.05-7.11-1.67-15.16-5.34-13.39-13.41,5.48-24.93,26.52-41.68,62.68-50l.39-.09a231.82,231.82,0,0,1,30.4-4.64c46.37-4.19,99.8,2.08,136.92,8.19l1.31.21a2.07,2.07,0,0,0,.93,0,2.22,2.22,0,0,0-.2-4.34Z"/><path class="cls-5" d="M1097.73,714.56c-5.51-23.32-13-61.51-17.77-112.66-37.12-6.11-90.55-12.38-136.92-8.19a231.82,231.82,0,0,0-30.4,4.64,2.23,2.23,0,0,1-.39.09c-36.16,8.31-57.2,25.06-62.68,50-1.77,8.07,6.28,11.74,13.39,13.41,1.91.09,15.49-1.92,29.91-6.05,17.56-5,28.63-11,31.18-16.77a2.21,2.21,0,0,1,1.64-1.29l27.89-5a2.27,2.27,0,0,1,1.32.17,2.19,2.19,0,0,1,1.52-.12c.26.07,26.73,7.44,53.29,16.82,15.64,5.53,28.27,10.66,37.53,15.27,12.46,6.19,18.72,11.29,19.69,16,1.83,8.89,0,15.7-5.35,20.24a21.72,21.72,0,0,1-6.19,3.57,2.24,2.24,0,0,1,0,1.65c-4,9.77-11.21,16.84-21.35,21-7.38,3-16.24,4.56-26.51,4.56s-22-1.52-35-4.56a243.59,243.59,0,0,1-34.6-10.91,2.22,2.22,0,0,1,1.71-4.1c.59.25,59.44,24.63,92.72,10.9a33.43,33.43,0,0,0,18.27-17.12,58.37,58.37,0,0,1-12.85,1.26q-16,0-40.44-6A426.35,426.35,0,0,1,951.48,687a2.22,2.22,0,1,1,1.61-4.14,421.66,421.66,0,0,0,45.34,14.24c30.9,7.65,51.75,7.88,60.29.67,4.09-3.45,5.36-8.67,3.86-16-.58-2.86-7-11.3-54.33-28-26.42-9.33-52.76-16.67-53-16.75a1.61,1.61,0,0,1-.33-.12,2,2,0,0,1-.54.17l-26.8,4.79c-3.86,6.87-15.35,13.05-34.18,18.36-12.72,3.59-26.52,6-30.47,6a4.43,4.43,0,0,1-.85-.06c-5.53-1.28-9.82-3.27-12.75-5.91a12.71,12.71,0,0,1-4.07-12.8c5.06-23,22.17-39.47,51-49.17l-64.63-.64c-4.79,50.33-12,87-17.37,109.28-1.74,7.23-3.37,13.39-4.83,18.53,8.58,4.82,45.5,25,86.21,38.46,27,9,50.42,13.27,69.49,12.82,21.18-.51,37-7,47.07-19.24a48.93,48.93,0,0,0,2.95-4,2.22,2.22,0,1,1,3.7,2.45l-.17.25a254.65,254.65,0,0,0,29-5.52c16.48-4.16,38.8-11.82,52.83-24.82Q1099.2,720.69,1097.73,714.56Zm-58,16c-4,9.76-11.21,16.83-21.35,21-7.37,3-16.24,4.57-26.51,4.57s-22-1.52-35-4.57a243.54,243.54,0,0,1-34.61-10.91,2.22,2.22,0,0,1,1.72-4.09c.59.25,59.44,24.62,92.72,10.9a33.47,33.47,0,0,0,18.92-18.6,2.22,2.22,0,0,1,4.11,1.69Z"/><path class="cls-4" d="M1105.4,727a2.16,2.16,0,0,1-.57,1c-.38.38-.78.75-1.18,1.12-.6.57-1.21,1.12-1.85,1.67-11.86,10.25-29.69,18.42-53.07,24.32a255.28,255.28,0,0,1-33.76,6.11l-.92.09h-.2a2.22,2.22,0,0,1-.19-4.43c.05,0,1.89-.17,5-.58a254.65,254.65,0,0,0,29-5.52c16.48-4.16,38.8-11.82,52.83-24.82l1.19-1.13a2.12,2.12,0,0,1,.69-.47,2.23,2.23,0,0,1,2.42.47l0,0A2.22,2.22,0,0,1,1105.4,727Z"/><path class="cls-4" d="M956.9,236.16a18.61,18.61,0,1,1,18.61-18.61A18.63,18.63,0,0,1,956.9,236.16Zm0-33.1a14.5,14.5,0,1,0,14.49,14.49A14.51,14.51,0,0,0,956.9,203.06Z"/><path class="cls-2" d="M991.42,286.5c0,.73,0,1.46,0,2.18h-69c0-.72,0-1.45,0-2.18,0-23.67,15.45-42.85,34.52-42.85S991.42,262.83,991.42,286.5Z"/><path class="cls-4" d="M991.38,290.74h-69a2.06,2.06,0,0,1-2-2c0-.73,0-1.5,0-2.27,0-24.76,16.41-44.91,36.58-44.91s36.58,20.15,36.58,44.91c0,.77,0,1.54-.05,2.27A2.06,2.06,0,0,1,991.38,290.74Zm-67-4.11h64.94v-.13c0-22.5-14.57-40.8-32.47-40.8s-32.47,18.3-32.47,40.8Z"/><path class="cls-4" d="M956.9,37.22a18.61,18.61,0,1,1,18.61-18.61A18.63,18.63,0,0,1,956.9,37.22Zm0-33.11a14.5,14.5,0,1,0,14.49,14.5A14.51,14.51,0,0,0,956.9,4.11Z"/><path class="cls-2" d="M991.42,87.55c0,.73,0,1.46,0,2.19h-69c0-.73,0-1.46,0-2.19,0-23.66,15.45-42.85,34.52-42.85S991.42,63.89,991.42,87.55Z"/><path class="cls-4" d="M991.38,91.8h-69a2.06,2.06,0,0,1-2-2c0-.74,0-1.5,0-2.28,0-24.76,16.41-44.9,36.58-44.9s36.58,20.14,36.58,44.9c0,.78,0,1.54-.05,2.28A2.06,2.06,0,0,1,991.38,91.8Zm-67-4.12h64.94v-.13c0-22.49-14.57-40.79-32.47-40.79s-32.47,18.3-32.47,40.79Z"/><path class="cls-4" d="M859.34,143.42A18.61,18.61,0,1,1,878,124.81,18.63,18.63,0,0,1,859.34,143.42Zm0-33.11a14.5,14.5,0,1,0,14.49,14.5A14.51,14.51,0,0,0,859.34,110.31Z"/><path class="cls-2" d="M893.86,193.75c0,.73,0,1.46,0,2.19h-69c0-.73,0-1.46,0-2.19,0-23.66,15.45-42.85,34.52-42.85S893.86,170.09,893.86,193.75Z"/><path class="cls-4" d="M893.82,198h-69a2.06,2.06,0,0,1-2.05-2c0-.73,0-1.5,0-2.28,0-24.76,16.41-44.9,36.58-44.9s36.58,20.14,36.58,44.9c0,.78,0,1.55,0,2.28A2.05,2.05,0,0,1,893.82,198Zm-67-4.12h64.94v-.13c0-22.49-14.57-40.79-32.47-40.79s-32.47,18.3-32.47,40.79Z"/><path class="cls-4" d="M1054.46,143.42a18.61,18.61,0,1,1,18.61-18.61A18.63,18.63,0,0,1,1054.46,143.42Zm0-33.11a14.5,14.5,0,1,0,14.49,14.5A14.51,14.51,0,0,0,1054.46,110.31Z"/><path class="cls-2" d="M1089,193.75c0,.73,0,1.46,0,2.19h-69c0-.73,0-1.46,0-2.19,0-23.66,15.45-42.85,34.52-42.85S1089,170.09,1089,193.75Z"/><path class="cls-4" d="M1088.94,198h-69a2.05,2.05,0,0,1-2.05-2c0-.73,0-1.5,0-2.28,0-24.76,16.41-44.9,36.58-44.9S1091,169,1091,193.75c0,.78,0,1.55,0,2.28A2.06,2.06,0,0,1,1088.94,198Zm-67-4.12h64.94v-.13c0-22.49-14.57-40.79-32.47-40.79S1022,171.26,1022,193.75Z"/><path class="cls-4" d="M880.26,107.23a2,2,0,0,1-1.32-.48,2,2,0,0,1-.26-2.89A102.41,102.41,0,0,1,902,83.33a2.06,2.06,0,0,1,2.22,3.47,97.84,97.84,0,0,0-22.39,19.7A2.07,2.07,0,0,1,880.26,107.23Z"/><path class="cls-4" d="M1021,248a2.06,2.06,0,0,1-1.32-3.64,98.08,98.08,0,0,0,19.7-22.39,2.06,2.06,0,0,1,3.46,2.22,102.16,102.16,0,0,1-20.52,23.33A2.09,2.09,0,0,1,1021,248Z"/><path class="cls-4" d="M1034.81,108.78a2,2,0,0,1-1.6-.76,98.26,98.26,0,0,0-22-20.13,2.06,2.06,0,0,1,2.29-3.42,102.55,102.55,0,0,1,22.89,21,2.05,2.05,0,0,1-.32,2.89A2,2,0,0,1,1034.81,108.78Z"/><path class="cls-4" d="M894.34,249.25a2.06,2.06,0,0,1-1.28-.45,102.11,102.11,0,0,1-21-22.89,2.06,2.06,0,0,1,3.42-2.28,98.62,98.62,0,0,0,20.12,22,2.06,2.06,0,0,1-1.29,3.66Z"/><path class="cls-4" d="M1384,662.17a40.76,40.76,0,0,1-5.84,20.86A54.12,54.12,0,0,1,1364,698.62c-.49.37-1,.74-1.5,1.1a2.05,2.05,0,0,1-2.87-.48l0-.07h0a2.06,2.06,0,0,1,.54-2.79c12.77-9.09,19.8-21.24,19.8-34.2,0-26.41-29.56-47.9-65.89-47.9s-65.9,21.49-65.9,47.9,29.56,47.9,65.9,47.9a88.4,88.4,0,0,0,21.11-2.52h.05a2.5,2.5,0,0,1,.38-.06h.29a2.24,2.24,0,0,1,.5.11,2.06,2.06,0,0,1-.18,3.94l-.63.15a92.49,92.49,0,0,1-21.52,2.5c-18.59,0-36.08-5.34-49.27-15-13.37-9.83-20.74-23-20.74-37s7.37-27.15,20.74-37c13.19-9.69,30.68-15,49.27-15s36.08,5.34,49.27,15C1376.64,635,1384,648.15,1384,662.17Z"/><path class="cls-4" d="M1378.17,726.33a2.07,2.07,0,0,1-1.56.72,2.29,2.29,0,0,1-.73-.13l-40.36-15.24-.59-.22a2.06,2.06,0,0,1,.18-3.91h.07a2.23,2.23,0,0,1,.36,0h.29a2.24,2.24,0,0,1,.5.11l.05,0L1372,721.05l-12.44-21.88h0a2.06,2.06,0,0,1,3.59-2l.84,1.48L1378.4,724A2.07,2.07,0,0,1,1378.17,726.33Z"/><path class="cls-2" d="M1297.48,664.45a7.1,7.1,0,1,1-7.09-7.1A7.09,7.09,0,0,1,1297.48,664.45Z"/><path class="cls-2" d="M1321.09,664.45a7.1,7.1,0,1,1-7.09-7.1A7.09,7.09,0,0,1,1321.09,664.45Z"/><path class="cls-5" d="M1359.55,699.16a2.06,2.06,0,0,1,.54-2.79c12.77-9.09,19.8-21.24,19.8-34.2,0-26.41-29.56-47.9-65.89-47.9s-65.9,21.49-65.9,47.9,29.56,47.9,65.9,47.9a88.4,88.4,0,0,0,21.11-2.52,2,2,0,0,1,.43-.07h.29a2.24,2.24,0,0,1,.5.11l.05,0L1372,721.05l-12.44-21.88Zm-69.16-27.62a7.1,7.1,0,1,1,7.09-7.09A7.1,7.1,0,0,1,1290.39,671.54Zm23.61,0a7.1,7.1,0,1,1,7.09-7.09A7.1,7.1,0,0,1,1314,671.54Zm23.61,0a7.1,7.1,0,1,1,7.09-7.09A7.1,7.1,0,0,1,1337.61,671.54Z"/><path class="cls-2" d="M1344.7,664.45a7.1,7.1,0,1,1-7.09-7.1A7.09,7.09,0,0,1,1344.7,664.45Z"/><path class="cls-4" d="M1527.84,697.43c0,14-7.37,27.15-20.75,37-13.18,9.69-30.68,15-49.26,15a92.43,92.43,0,0,1-21.52-2.51l-.63-.15a2.05,2.05,0,0,1-.18-3.94l.15-.05h0l.13,0a2,2,0,0,1,.34,0h.25l.11,0,.1,0h0a88.33,88.33,0,0,0,21.17,2.53c36.33,0,65.89-21.48,65.89-47.9s-29.56-47.9-65.89-47.9-65.9,21.49-65.9,47.9c0,13,7,25.11,19.81,34.2a2.06,2.06,0,0,1,.55,2.76l-.07.11a2.05,2.05,0,0,1-2.87.48c-.51-.36-1-.73-1.5-1.1a53.71,53.71,0,0,1-14.19-15.59,40.63,40.63,0,0,1-5.84-20.86c0-14,7.37-27.15,20.74-37,13.18-9.69,30.68-15,49.27-15s36.08,5.34,49.26,15C1520.47,670.28,1527.84,683.42,1527.84,697.43Z"/><path class="cls-4" d="M1436.89,746.72l-.58.22-40.37,15.24a2,2,0,0,1-.72.13,2.05,2.05,0,0,1-1.79-3.07l14.42-25.36.84-1.49a2.06,2.06,0,0,1,3.6,2l0,0-12.45,21.88,35.62-13.44.06,0,.15-.05h0l.13,0a2,2,0,0,1,.34,0h.25l.11,0,.1,0a2.06,2.06,0,0,1,.26,3.93Z"/><path class="cls-2" d="M1488.53,699.71a7.1,7.1,0,1,1-7.09-7.1A7.09,7.09,0,0,1,1488.53,699.71Z"/><path class="cls-2" d="M1464.92,699.71a7.1,7.1,0,1,1-7.09-7.1A7.08,7.08,0,0,1,1464.92,699.71Z"/><path class="cls-5" d="M1457.83,649.53c-36.34,0-65.9,21.49-65.9,47.9,0,13,7,25.11,19.81,34.2a2.06,2.06,0,0,1,.55,2.76l0,0-12.45,21.88,35.62-13.44.06,0,.15-.05h0l.13,0a2,2,0,0,1,.34,0h.25l.11,0,.1,0h0a88.33,88.33,0,0,0,21.17,2.53c36.33,0,65.89-21.48,65.89-47.9S1494.16,649.53,1457.83,649.53Zm-23.61,57.27a7.1,7.1,0,1,1,7.09-7.09A7.09,7.09,0,0,1,1434.22,706.8Zm23.61,0a7.1,7.1,0,1,1,7.09-7.09A7.09,7.09,0,0,1,1457.83,706.8Zm23.61,0a7.1,7.1,0,1,1,7.09-7.09A7.09,7.09,0,0,1,1481.44,706.8Z"/><path class="cls-2" d="M1441.31,699.71a7.1,7.1,0,1,1-7.09-7.1A7.08,7.08,0,0,1,1441.31,699.71Z"/><path class="cls-2" d="M1297.28,373.33h-21.13a58.44,58.44,0,0,0-4.7-11.36L1286.39,347a10.11,10.11,0,0,0,0-14.3l-9.19-9.19a10.11,10.11,0,0,0-14.3,0L1248,338.48a58.35,58.35,0,0,0-11.35-4.7V312.65a10.11,10.11,0,0,0-10.11-10.11h-13a10.11,10.11,0,0,0-10.11,10.11v21.13a58.35,58.35,0,0,0-11.35,4.7l-15-14.94a10.1,10.1,0,0,0-14.29,0l-9.19,9.19a10.11,10.11,0,0,0,0,14.3L1168.55,362a57.36,57.36,0,0,0-4.71,11.36h-21.13a10.11,10.11,0,0,0-10.11,10.11v13a10.11,10.11,0,0,0,10.11,10.11h21.13a57.86,57.86,0,0,0,4.71,11.36l-14.94,14.94a10.11,10.11,0,0,0,0,14.3l9.19,9.18a10.1,10.1,0,0,0,14.29,0l15-14.94a57.74,57.74,0,0,0,11.35,4.7v21.14a10.11,10.11,0,0,0,10.11,10.11h13a10.11,10.11,0,0,0,10.11-10.11V446.08a57.74,57.74,0,0,0,11.35-4.7l14.94,14.94a10.11,10.11,0,0,0,14.3,0l9.19-9.18a10.11,10.11,0,0,0,0-14.3l-14.94-14.95a58.1,58.1,0,0,0,4.7-11.35h21.13a10.11,10.11,0,0,0,10.11-10.11v-13A10.1,10.1,0,0,0,1297.28,373.33Zm-46.85,23.55a31.09,31.09,0,0,1-4,9.66A31.27,31.27,0,0,1,1227,420.37a31.83,31.83,0,0,1-7,.77,31.24,31.24,0,0,1-7-.78,30.85,30.85,0,0,1-9.66-4,31.27,31.27,0,0,1-13.83-19.48,31.75,31.75,0,0,1,0-13.9,31.22,31.22,0,0,1,60.87,13.9Z"/><path class="cls-4" d="M1226.5,479.38h-13a12.17,12.17,0,0,1-12.16-12.16V447.6a59.22,59.22,0,0,1-8.92-3.69l-13.87,13.87a12.18,12.18,0,0,1-17.21,0l-9.19-9.19a12.18,12.18,0,0,1,0-17.21L1166,417.51a60.65,60.65,0,0,1-3.7-8.91h-19.6a12.18,12.18,0,0,1-12.17-12.17v-13a12.18,12.18,0,0,1,12.17-12.17h19.6a60.32,60.32,0,0,1,3.7-8.92l-13.87-13.87a12.18,12.18,0,0,1,0-17.21l9.19-9.18a12.16,12.16,0,0,1,17.21,0L1192.42,336a60.32,60.32,0,0,1,8.92-3.7V312.65a12.18,12.18,0,0,1,12.16-12.17h13a12.18,12.18,0,0,1,12.16,12.17v19.61a60.32,60.32,0,0,1,8.92,3.7l13.87-13.87a12.14,12.14,0,0,1,17.2,0l9.19,9.18a12.18,12.18,0,0,1,0,17.21L1274,362.35a60.32,60.32,0,0,1,3.7,8.92h19.61a12.18,12.18,0,0,1,12.17,12.17v13a12.18,12.18,0,0,1-12.17,12.17h-19.61a60.65,60.65,0,0,1-3.7,8.91l13.87,13.87a12.18,12.18,0,0,1,0,17.21l-9.2,9.19a12.17,12.17,0,0,1-17.2,0l-13.87-13.87a59.22,59.22,0,0,1-8.92,3.69v19.62A12.17,12.17,0,0,1,1226.5,479.38ZM1192,439.32a2,2,0,0,1,1,.25,55.86,55.86,0,0,0,11,4.54,2.06,2.06,0,0,1,1.48,2v21.14a8.06,8.06,0,0,0,8,8h13a8.06,8.06,0,0,0,8-8V446.08a2.06,2.06,0,0,1,1.48-2,55.86,55.86,0,0,0,11-4.54,2.06,2.06,0,0,1,2.43.35l14.95,14.95a8,8,0,0,0,11.38,0l9.2-9.19a8.07,8.07,0,0,0,0-11.39L1270,419.35a2.06,2.06,0,0,1-.35-2.44,56.48,56.48,0,0,0,4.54-11,2.06,2.06,0,0,1,2-1.48h21.13a8.07,8.07,0,0,0,8.06-8.05v-13a8.07,8.07,0,0,0-8.06-8.06h-21.13a2.06,2.06,0,0,1-2-1.47,56,56,0,0,0-4.54-11,2.06,2.06,0,0,1,.35-2.44l15-14.95a8.07,8.07,0,0,0,0-11.39l-9.18-9.18a8.05,8.05,0,0,0-11.39,0l-14.95,14.94a2,2,0,0,1-2.43.35,56.48,56.48,0,0,0-11-4.54,2,2,0,0,1-1.48-2V312.65a8.07,8.07,0,0,0-8-8.06h-13a8.07,8.07,0,0,0-8,8.06v21.13a2,2,0,0,1-1.48,2,56.48,56.48,0,0,0-11,4.54,2.06,2.06,0,0,1-2.44-.35L1175.64,325a8.05,8.05,0,0,0-11.39,0l-9.19,9.18a8.05,8.05,0,0,0,0,11.39L1170,360.51a2,2,0,0,1,.35,2.44,56.27,56.27,0,0,0-4.53,11,2.06,2.06,0,0,1-2,1.47h-21.12a8.07,8.07,0,0,0-8.06,8.06v13a8.06,8.06,0,0,0,8.06,8.05h21.12a2.06,2.06,0,0,1,2,1.48,56.18,56.18,0,0,0,4.53,11,2,2,0,0,1-.35,2.44l-14.94,14.94a8.05,8.05,0,0,0,0,11.39l9.19,9.19a8.05,8.05,0,0,0,11.39,0l14.94-14.95A2.08,2.08,0,0,1,1192,439.32Zm28-16.12a33.33,33.33,0,0,1-7.41-.83,32.91,32.91,0,0,1-10.29-4.27,33.33,33.33,0,0,1-10.47-10.47,33,33,0,0,1-4.27-10.29,33.45,33.45,0,0,1,0-14.81,33,33,0,0,1,4.27-10.3,33.54,33.54,0,0,1,10.47-10.47,33.11,33.11,0,0,1,10.3-4.27,33.75,33.75,0,0,1,14.8,0,33,33,0,0,1,10.3,4.27,33.54,33.54,0,0,1,10.47,10.47,33.3,33.3,0,0,1,4.27,25.1h0a33.16,33.16,0,0,1-4.27,10.31,33.61,33.61,0,0,1-10.47,10.46,33.18,33.18,0,0,1-17.7,5.1Zm0-62.42a29.19,29.19,0,0,0-15.51,4.46,29.47,29.47,0,0,0-9.18,9.18,29.17,29.17,0,0,0,18.2,43.94,29.61,29.61,0,0,0,13,0,29,29,0,0,0,9-3.74,29.47,29.47,0,0,0,9.18-9.18,28.9,28.9,0,0,0,3.73-9h0a29.13,29.13,0,0,0-3.74-22,29.57,29.57,0,0,0-9.18-9.18,29,29,0,0,0-9-3.74A29.34,29.34,0,0,0,1220,360.78Z"/><polygon class="cls-6" points="1625.03 536.82 1625.07 554.22 1673.9 519.69 1624.92 485.02 1624.95 501.88 1625.03 536.82"/><path class="cls-4" d="M1625.07,556.27a2.1,2.1,0,0,1-1-.22,2.07,2.07,0,0,1-1.11-1.83l0-17.39a2.05,2.05,0,0,1,2-2.06h0a2,2,0,0,1,2,2.05l0,13.43,43.22-30.56L1627,489l0,12.88a2.06,2.06,0,0,1-2,2.06h0a2.07,2.07,0,0,1-2.06-2.05l0-16.87a2.07,2.07,0,0,1,1.11-1.83,2,2,0,0,1,2.13.15l49,34.67a2.06,2.06,0,0,1,.87,1.68,2,2,0,0,1-.87,1.68l-48.84,34.53A2,2,0,0,1,1625.07,556.27Z"/><polygon class="cls-6" points="1624.95 501.88 1520.42 501.88 1520.42 536.82 1625.03 536.82 1624.95 501.88"/><path class="cls-4" d="M1625,538.88h-104.6a2.06,2.06,0,0,1-2.06-2.06V501.88a2.06,2.06,0,0,1,2.06-2.06H1625a2.06,2.06,0,0,1,0,4.12H1522.48v30.83H1625a2.06,2.06,0,0,1,0,4.11Z"/><polygon class="cls-2" points="1569.38 569.66 1569.41 552.8 1520.42 587.47 1569.26 622 1569.3 604.6 1569.38 569.66"/><path class="cls-4" d="M1569.26,624.05a2,2,0,0,1-1.18-.37l-48.84-34.53a2,2,0,0,1-.87-1.68,2.06,2.06,0,0,1,.87-1.68l49-34.67a2,2,0,0,1,2.13-.15,2.07,2.07,0,0,1,1.11,1.83l0,16.86a2.07,2.07,0,0,1-2.06,2.06h0a2.07,2.07,0,0,1-2-2.06l0-12.88L1524,587.47,1567.21,618l0-13.43a2.05,2.05,0,0,1,2-2.06h0a2.07,2.07,0,0,1,2,2.07l0,17.39a2,2,0,0,1-1.11,1.82A2,2,0,0,1,1569.26,624.05Z"/><polygon class="cls-2" points="1569.3 604.6 1673.9 604.6 1673.9 569.66 1569.38 569.66 1569.3 604.6"/><path class="cls-4" d="M1673.9,606.66H1569.3a2.06,2.06,0,0,1,0-4.12h102.55V571.72H1569.38a2.06,2.06,0,0,1,0-4.12H1673.9a2.06,2.06,0,0,1,2.06,2.06V604.6A2.06,2.06,0,0,1,1673.9,606.66Z"/><path class="cls-4" d="M1157.08,1115.05H924.88a2.06,2.06,0,0,0-2.06,2.06v302.33a2.06,2.06,0,0,0,2.06,2.06h232.2a2.06,2.06,0,0,0,2.06-2.06V1117.11A2.06,2.06,0,0,0,1157.08,1115.05Zm-2,302.33H926.94V1119.17H1155Z"/><path class="cls-5" d="M926.94,1119.17v298.21H1155V1119.17Zm82.71,255.32h-60a2.06,2.06,0,0,1,0-4.11h60a2.06,2.06,0,0,1,0,4.11Zm0-15.22h-60a2.06,2.06,0,0,1,0-4.11h60a2.06,2.06,0,0,1,0,4.11Zm0-15.21h-60a2.06,2.06,0,0,1,0-4.12h60a2.06,2.06,0,0,1,0,4.12Zm0-15.22h-60a2.06,2.06,0,0,1,0-4.11h60a2.06,2.06,0,0,1,0,4.11Zm0-15.22h-60a2.06,2.06,0,0,1,0-4.11h60a2.06,2.06,0,0,1,0,4.11Zm0-15.21h-60a2.06,2.06,0,0,1,0-4.12h60a2.06,2.06,0,0,1,0,4.12Zm0-15.22h-60a2.06,2.06,0,0,1,0-4.11h60a2.06,2.06,0,0,1,0,4.11Zm-61.18-49.87v-44.6h16.86v-18H982.2v8.8h16.86v19.65h16.87v-8.92h16.86v-17.39h16.87v-15h16.86v-5.42h16.87v28.69h16.86v-12.2h16.87v18.86H1134v45.59ZM1113.4,1282l-31.15,37a2.08,2.08,0,0,1-1.58.73h-.14a2.07,2.07,0,0,1-1.6-1l-25.69-41a2.07,2.07,0,0,1,.65-2.84,50.47,50.47,0,0,1,59.26,4.15A2.06,2.06,0,0,1,1113.4,1282Zm-35.48,98.7a50.46,50.46,0,0,1-26.77-93.23,2.06,2.06,0,0,1,1.55-.27,2.11,2.11,0,0,1,1.28.92l25.08,40.06h47.27a2.05,2.05,0,0,1,2.05,2.06A50.52,50.52,0,0,1,1077.92,1380.65Zm56.58-55.74h-48.4a2.06,2.06,0,0,1-1.58-3.38l31.16-37a2.05,2.05,0,0,1,1.4-.73,2.1,2.1,0,0,1,1.5.48,50.39,50.39,0,0,1,18,38.62A2.05,2.05,0,0,1,1134.5,1324.91Z"/><path class="cls-2" d="M1111.83,1280.63l-31.16,37-25.68-41a48.42,48.42,0,0,1,56.84,4Z"/><path class="cls-4" d="M1113.15,1279.05a50.47,50.47,0,0,0-59.26-4.15,2.07,2.07,0,0,0-.65,2.84l25.69,41a2.07,2.07,0,0,0,1.6,1h.14a2.08,2.08,0,0,0,1.58-.73l31.15-37A2.06,2.06,0,0,0,1113.15,1279.05Zm-32.23,35.14-23.08-36.86a46.38,46.38,0,0,1,51.06,3.59Z"/><path class="cls-6" d="M1134.5,1322.86h-48.4l31.15-37A48.3,48.3,0,0,1,1134.5,1322.86Z"/><path class="cls-4" d="M1118.58,1284.24a2.1,2.1,0,0,0-1.5-.48,2.05,2.05,0,0,0-1.4.73l-31.16,37a2.06,2.06,0,0,0,1.58,3.38h48.4a2.05,2.05,0,0,0,2.06-2.05A50.39,50.39,0,0,0,1118.58,1284.24Zm-28.07,36.56,27-32a46.23,46.23,0,0,1,14.93,32Z"/><path class="cls-4" d="M1126.33,1328.13h-47.27L1054,1288.07a2.11,2.11,0,0,0-1.28-.92,2.06,2.06,0,0,0-1.55.27,50.46,50.46,0,1,0,77.23,42.77A2.05,2.05,0,0,0,1126.33,1328.13Zm-48.41,48.4a46.35,46.35,0,0,1-26.31-84.5l24.57,39.25a2.07,2.07,0,0,0,1.74,1h46.31A46.4,46.4,0,0,1,1077.92,1376.53Z"/><path class="cls-5" d="M1124.23,1332.25a46.35,46.35,0,1,1-72.62-40.22l24.57,39.25a2.07,2.07,0,0,0,1.74,1Z"/><path class="cls-4" d="M1011.7,1281.13a2.05,2.05,0,0,1-2.05,2.06h-60a2.06,2.06,0,0,1,0-4.11h60A2.05,2.05,0,0,1,1011.7,1281.13Z"/><path class="cls-4" d="M1011.7,1296.35a2.05,2.05,0,0,1-2.05,2.06h-60a2.06,2.06,0,0,1,0-4.12h60A2.05,2.05,0,0,1,1011.7,1296.35Z"/><path class="cls-4" d="M1011.7,1311.57a2.05,2.05,0,0,1-2.05,2h-60a2.06,2.06,0,0,1,0-4.11h60A2.05,2.05,0,0,1,1011.7,1311.57Z"/><path class="cls-4" d="M1011.7,1326.78a2.05,2.05,0,0,1-2.05,2.06h-60a2.06,2.06,0,0,1,0-4.11h60A2.05,2.05,0,0,1,1011.7,1326.78Z"/><path class="cls-4" d="M1011.7,1342a2.05,2.05,0,0,1-2.05,2.06h-60a2.06,2.06,0,0,1,0-4.12h60A2.05,2.05,0,0,1,1011.7,1342Z"/><path class="cls-4" d="M1011.7,1357.22a2.05,2.05,0,0,1-2.05,2h-60a2.06,2.06,0,0,1,0-4.11h60A2.05,2.05,0,0,1,1011.7,1357.22Z"/><path class="cls-4" d="M1011.7,1372.43a2.05,2.05,0,0,1-2.05,2.06h-60a2.06,2.06,0,0,1,0-4.11h60A2.05,2.05,0,0,1,1011.7,1372.43Z"/><rect class="cls-6" x="948.47" y="1188.72" width="16.87" height="44.6"/><rect class="cls-2" x="965.33" y="1170.68" width="16.87" height="62.64"/><rect class="cls-6" x="982.2" y="1179.48" width="16.87" height="53.83"/><rect class="cls-2" x="999.06" y="1199.13" width="16.87" height="34.18"/><rect class="cls-6" x="1015.93" y="1190.21" width="16.86" height="43.1"/><rect class="cls-2" x="1032.79" y="1172.82" width="16.87" height="60.5"/><rect class="cls-6" x="1049.66" y="1157.8" width="16.87" height="75.51"/><rect class="cls-2" x="1066.52" y="1152.38" width="16.87" height="80.93"/><rect class="cls-6" x="1083.39" y="1181.07" width="16.87" height="52.25"/><rect class="cls-2" x="1100.25" y="1168.87" width="16.87" height="64.45"/><rect class="cls-6" x="1117.12" y="1187.73" width="16.86" height="45.59"/><path class="cls-4" d="M1605.55,293.33H1350.8a2.06,2.06,0,0,1-2.06-2.06V155.52a2.06,2.06,0,1,1,4.11,0V289.21h252.7a2.06,2.06,0,0,1,0,4.12Z"/><path class="cls-4" d="M1361.12,162.66a2,2,0,0,1-1.45-.61l-8.71-8.7-8.71,8.7a2.06,2.06,0,0,1-2.91-2.91L1349.5,149a2.06,2.06,0,0,1,2.91,0l10.17,10.16a2.07,2.07,0,0,1-1.46,3.52Z"/><path class="cls-4" d="M1597.73,303.49a2,2,0,0,1-1.45-.61,2,2,0,0,1,0-2.91l8.7-8.7-8.7-8.71a2.05,2.05,0,0,1,2.9-2.91l10.17,10.16a2.09,2.09,0,0,1,.6,1.46,2.07,2.07,0,0,1-.6,1.45l-10.17,10.16A2,2,0,0,1,1597.73,303.49Z"/><path class="cls-4" d="M1350.8,293.33a2.07,2.07,0,0,1-1.63-3.32l63-81.24a2,2,0,0,1,2.22-.71l71.51,21.87,71.67-55.1a2.06,2.06,0,1,1,2.51,3.26l-72.52,55.75a2.05,2.05,0,0,1-1.85.34l-71.16-21.77-62.09,80.12A2.05,2.05,0,0,1,1350.8,293.33Z"/><circle class="cls-2" cx="1413.75" cy="210.03" r="8.82" transform="translate(884.53 1537.71) rotate(-76.72)"/><path class="cls-4" d="M1413.75,220.9A10.88,10.88,0,1,1,1424.63,210,10.89,10.89,0,0,1,1413.75,220.9Zm0-17.63a6.76,6.76,0,1,0,6.76,6.76A6.77,6.77,0,0,0,1413.75,203.27Z"/><circle class="cls-2" cx="1486.27" cy="232.21" r="8.82"/><path class="cls-4" d="M1486.27,243.08a10.87,10.87,0,1,1,10.87-10.87A10.88,10.88,0,0,1,1486.27,243.08Zm0-17.63a6.76,6.76,0,1,0,6.76,6.76A6.76,6.76,0,0,0,1486.27,225.45Z"/><circle class="cls-2" cx="1558.78" cy="176.46" r="8.82"/><path class="cls-4" d="M1558.78,187.33a10.87,10.87,0,1,1,10.88-10.87A10.88,10.88,0,0,1,1558.78,187.33Zm0-17.63a6.76,6.76,0,1,0,6.76,6.76A6.77,6.77,0,0,0,1558.78,169.7Z"/><path class="cls-5" d="M1413.75,224.8v0Z"/><path class="cls-4" d="M1413.75,229.23a2.05,2.05,0,0,1-2-2V224.8a2.06,2.06,0,1,1,4.11,0v2.38A2.05,2.05,0,0,1,1413.75,229.23Z"/><path class="cls-4" d="M1413.75,274.12a2.05,2.05,0,0,1-2-2.06v-5a2.06,2.06,0,0,1,4.11,0v5A2.06,2.06,0,0,1,1413.75,274.12Zm0-15a2.06,2.06,0,0,1-2-2.06v-5a2.06,2.06,0,1,1,4.11,0v5A2.06,2.06,0,0,1,1413.75,259.16Zm0-15a2.05,2.05,0,0,1-2-2.05v-5a2.06,2.06,0,1,1,4.11,0v5A2.05,2.05,0,0,1,1413.75,244.19Z"/><path class="cls-4" d="M1413.75,286.47a2.06,2.06,0,0,1-2-2.06V282a2.06,2.06,0,0,1,4.11,0v2.38A2.06,2.06,0,0,1,1413.75,286.47Z"/><path class="cls-5" d="M1486.27,246.61v0Z"/><path class="cls-4" d="M1486.27,251a2.06,2.06,0,0,1-2.06-2.06v-2.37a2.06,2.06,0,1,1,4.12,0V249A2.06,2.06,0,0,1,1486.27,251Z"/><path class="cls-4" d="M1486.27,275.83a2.06,2.06,0,0,1-2.06-2.06v-4.13a2.06,2.06,0,0,1,4.12,0v4.13A2.06,2.06,0,0,1,1486.27,275.83Zm0-12.4a2.05,2.05,0,0,1-2.06-2.05v-4.13a2.06,2.06,0,0,1,4.12,0v4.13A2.06,2.06,0,0,1,1486.27,263.43Z"/><path class="cls-4" d="M1486.27,286.47a2.06,2.06,0,0,1-2.06-2.06V282a2.06,2.06,0,0,1,4.12,0v2.38A2.07,2.07,0,0,1,1486.27,286.47Z"/><path class="cls-5" d="M1558.78,191.6v0Z"/><path class="cls-4" d="M1558.78,196a2.05,2.05,0,0,1-2-2.06V191.6a2.06,2.06,0,1,1,4.11,0V194A2.06,2.06,0,0,1,1558.78,196Z"/><path class="cls-4" d="M1558.78,275.29a2.06,2.06,0,0,1-2-2.06v-4.41a2.06,2.06,0,0,1,4.11,0v4.41A2.06,2.06,0,0,1,1558.78,275.29Zm0-13.21a2.06,2.06,0,0,1-2-2.06v-4.4a2.06,2.06,0,1,1,4.11,0V260A2.06,2.06,0,0,1,1558.78,262.08Zm0-13.21a2.06,2.06,0,0,1-2-2.06v-4.4a2.06,2.06,0,1,1,4.11,0v4.4A2.06,2.06,0,0,1,1558.78,248.87Zm0-13.21a2.06,2.06,0,0,1-2-2.06v-4.4a2.06,2.06,0,1,1,4.11,0v4.4A2.06,2.06,0,0,1,1558.78,235.66Zm0-13.21a2.06,2.06,0,0,1-2-2.06V216a2.06,2.06,0,1,1,4.11,0v4.4A2.06,2.06,0,0,1,1558.78,222.45Zm0-13.21a2.06,2.06,0,0,1-2-2.06v-4.4a2.06,2.06,0,1,1,4.11,0v4.4A2.06,2.06,0,0,1,1558.78,209.24Z"/><path class="cls-4" d="M1558.78,286.47a2.06,2.06,0,0,1-2-2.06V282a2.06,2.06,0,0,1,4.11,0v2.38A2.06,2.06,0,0,1,1558.78,286.47Z"/><path class="cls-4" d="M1523.54,971.12H1357.86a2.05,2.05,0,0,1-2-2.06V791.4a2.06,2.06,0,0,1,4.11,0V967h163.62a2.06,2.06,0,0,1,0,4.12Z"/><rect class="cls-6" x="1386.45" y="870.96" width="24.76" height="66.38"/><rect class="cls-2" x="1433.25" y="845.49" width="24.76" height="91.85"/><rect class="cls-6" x="1479.97" y="810.73" width="24.76" height="126.61"/><circle class="cls-5" cx="758.52" cy="1196.99" r="80.5"/><path class="cls-4" d="M758.52,1279.54a82.56,82.56,0,1,1,58.37-24.18h0A82,82,0,0,1,758.52,1279.54Zm0-161A78.41,78.41,0,1,0,814,1141.52,78.21,78.21,0,0,0,758.52,1118.58Z"/><circle class="cls-6" cx="758.52" cy="1196.99" r="61.57"/><path class="cls-4" d="M758.52,1260.61a63.61,63.61,0,1,1,45-18.63A63.23,63.23,0,0,1,758.52,1260.61Zm0-123.13a59.51,59.51,0,1,0,42.08,17.43A59.11,59.11,0,0,0,758.52,1137.48Z"/><rect class="cls-2" x="613.12" y="1261.52" width="34.8" height="126.92" rx="8.66" transform="translate(1121.58 -57.77) rotate(45)"/><path class="cls-4" d="M598,1380.62a10.6,10.6,0,0,1-7.57-3.13L578,1365.13a10.73,10.73,0,0,1,0-15.16l77.49-77.49a10.73,10.73,0,0,1,15.16,0L683,1284.84a10.72,10.72,0,0,1,0,15.15l-77.5,77.5A10.64,10.64,0,0,1,598,1380.62Zm65.14-107.17a6.62,6.62,0,0,0-4.67,1.93l-77.5,77.5a6.62,6.62,0,0,0,0,9.34l12.36,12.36a6.64,6.64,0,0,0,9.34,0l77.5-77.5a6.62,6.62,0,0,0,0-9.34l-12.36-12.36A6.62,6.62,0,0,0,663.09,1273.45Z"/><path class="cls-4" d="M668.25,1275.16a2.06,2.06,0,0,1-1.45-3.51l26.7-26.71a2.06,2.06,0,0,1,2.91,2.91l-26.7,26.71A2.08,2.08,0,0,1,668.25,1275.16Z"/><path class="cls-4" d="M682.4,1289.31a2.06,2.06,0,0,1-1.45-3.51l26.7-26.71a2.06,2.06,0,0,1,2.91,2.91l-26.7,26.71A2.06,2.06,0,0,1,682.4,1289.31Z"/><path class="cls-4" d="M544.74,643.47a2.06,2.06,0,0,1-2-1.5l-20-70.74H502.2a2.06,2.06,0,0,1,0-4.12h22.08a2.06,2.06,0,0,1,2,1.5l20.47,72.24a2.05,2.05,0,0,1-1.42,2.54A2.1,2.1,0,0,1,544.74,643.47Z"/><path class="cls-4" d="M624.14,666.62H550.49a2.05,2.05,0,0,1-2-1.56l-5.75-23.15a2.05,2.05,0,0,1,2-2.56H613.8l12.13-45h-95.1a2.06,2.06,0,1,1,0-4.11h97.79a2.07,2.07,0,0,1,2,2.59L617.36,642a2.06,2.06,0,0,1-2,1.52h-68l4.73,19h72a2.06,2.06,0,0,1,0,4.12Z"/><path class="cls-4" d="M568.64,643.47a2.06,2.06,0,0,1-2-1.73l-8-49.11a2.06,2.06,0,0,1,4.07-.66l7.94,49.11a2.06,2.06,0,0,1-1.7,2.36Z"/><path class="cls-4" d="M592,643.47l-.33,0a2.06,2.06,0,0,1-1.7-2.36L597.93,592a2.06,2.06,0,0,1,4.07.66l-8,49.11A2.06,2.06,0,0,1,592,643.47Z"/><path class="cls-4" d="M622,618.91H537.78a2.06,2.06,0,0,1,0-4.11H622a2.06,2.06,0,0,1,0,4.11Z"/><path class="cls-4" d="M560.43,696.59a10.4,10.4,0,1,1,10.4-10.4A10.41,10.41,0,0,1,560.43,696.59Zm0-16.68a6.29,6.29,0,1,0,6.29,6.28A6.29,6.29,0,0,0,560.43,679.91Z"/><path class="cls-4" d="M616.52,696.59a10.4,10.4,0,1,1,10.4-10.4A10.41,10.41,0,0,1,616.52,696.59Zm0-16.68a6.29,6.29,0,1,0,6.29,6.28A6.29,6.29,0,0,0,616.52,679.91Z"/><path class="cls-2" d="M1271.17,1228.89V1257a9.16,9.16,0,0,0,9.14,9.14H1394.9A9.17,9.17,0,0,0,1404,1257v-28.13Zm66.44,29.89a10.72,10.72,0,1,1,10.72-10.72A10.72,10.72,0,0,1,1337.61,1258.78Z"/><path class="cls-4" d="M1394.9,1268.21H1280.31a11.2,11.2,0,0,1-11.19-11.19v-28.13a2.05,2.05,0,0,1,2.05-2.05H1404a2.05,2.05,0,0,1,2,2.05V1257A11.2,11.2,0,0,1,1394.9,1268.21ZM1273.23,1231V1257a7.09,7.09,0,0,0,7.08,7.08H1394.9A7.09,7.09,0,0,0,1402,1257V1231Zm64.38,29.89a12.78,12.78,0,1,1,12.77-12.78A12.81,12.81,0,0,1,1337.61,1260.84Zm0-21.45a8.67,8.67,0,1,0,8.66,8.67A8.68,8.68,0,0,0,1337.61,1239.39Z"/><path class="cls-5" d="M1348.33,1248.06a10.73,10.73,0,1,1-10.72-10.72A10.73,10.73,0,0,1,1348.33,1248.06Z"/><path class="cls-4" d="M1337.61,1260.84a12.78,12.78,0,1,1,12.77-12.78A12.81,12.81,0,0,1,1337.61,1260.84Zm0-21.45a8.67,8.67,0,1,0,8.66,8.67A8.68,8.68,0,0,0,1337.61,1239.39Z"/><path class="cls-5" d="M1404,1058.59v170.3H1271.17v-170.3a9.16,9.16,0,0,1,9.14-9.14H1394.9A9.17,9.17,0,0,1,1404,1058.59Z"/><path class="cls-4" d="M1404,1231H1271.17a2.05,2.05,0,0,1-2.05-2.06v-170.3a11.21,11.21,0,0,1,11.19-11.2H1394.9a11.21,11.21,0,0,1,11.19,11.2v170.3A2.05,2.05,0,0,1,1404,1231Zm-130.81-4.11H1402V1058.59a7.09,7.09,0,0,0-7.08-7.08H1280.31a7.09,7.09,0,0,0-7.08,7.08Z"/><path class="cls-5" d="M1348.33,1248.06a10.73,10.73,0,1,1-10.72-10.72A10.73,10.73,0,0,1,1348.33,1248.06Z"/><path class="cls-4" d="M1337.61,1260.84a12.78,12.78,0,1,1,12.77-12.78A12.81,12.81,0,0,1,1337.61,1260.84Zm0-21.45a8.67,8.67,0,1,0,8.66,8.67A8.68,8.68,0,0,0,1337.61,1239.39Z"/><path class="cls-5" d="M1319.38,1135.66c9.43-6.71,15.3-16.12,15.3-26.55,0-20.42-22.52-37-50.29-37s-50.29,16.55-50.29,37,22.51,37,50.29,37a67.17,67.17,0,0,0,16-1.92Z"/><path class="cls-4" d="M1284.39,1148.14c-13.87,0-26.93-4-36.78-11.22-10-7.39-15.57-17.26-15.57-27.81s5.53-20.42,15.57-27.8c9.85-7.24,22.91-11.22,36.78-11.22s26.93,4,36.78,11.22c10,7.38,15.56,17.26,15.56,27.8,0,10.78-5.74,20.81-16.16,28.23a2.05,2.05,0,1,1-2.38-3.35c9.3-6.63,14.43-15.46,14.43-24.88,0-19.25-21.64-34.91-48.23-34.91s-48.23,15.66-48.23,34.91,21.63,34.92,48.23,34.92a65,65,0,0,0,15.53-1.86,2.06,2.06,0,1,1,1,4A68.55,68.55,0,0,1,1284.39,1148.14Z"/><path class="cls-4" d="M1330.72,1157.66a2,2,0,0,1-.72-.13l-30.31-11.44a2.06,2.06,0,0,1,1.45-3.85l25,9.43-8.48-14.91a2.06,2.06,0,1,1,3.58-2l11.29,19.86a2.05,2.05,0,0,1-1.79,3.07Z"/><path class="cls-2" d="M1272.16,1110.8a5.25,5.25,0,1,1-5.25-5.25A5.25,5.25,0,0,1,1272.16,1110.8Z"/><path class="cls-2" d="M1289.64,1110.8a5.25,5.25,0,1,1-5.25-5.25A5.25,5.25,0,0,1,1289.64,1110.8Z"/><path class="cls-2" d="M1307.11,1110.8a5.25,5.25,0,1,1-5.25-5.25A5.25,5.25,0,0,1,1307.11,1110.8Z"/><path class="cls-5" d="M1374.8,1170.26a66.6,66.6,0,0,0,16,1.92c27.77,0,50.29-16.55,50.29-37s-22.52-37-50.29-37-50.29,16.55-50.29,37c0,10.42,5.86,19.83,15.3,26.55Z"/><path class="cls-4" d="M1390.83,1174.24a69.05,69.05,0,0,1-16.52-2,2.06,2.06,0,0,1,1-4,64.5,64.5,0,0,0,15.54,1.86c26.59,0,48.23-15.66,48.23-34.91s-21.64-34.91-48.23-34.91-48.23,15.66-48.23,34.91c0,9.41,5.12,18.25,14.43,24.88a2.06,2.06,0,0,1-2.39,3.35c-10.42-7.43-16.16-17.45-16.16-28.23,0-10.55,5.53-20.42,15.57-27.8,9.85-7.24,22.91-11.23,36.78-11.23s26.93,4,36.78,11.23c10,7.38,15.56,17.25,15.56,27.8s-5.52,20.42-15.56,27.8C1417.76,1170.25,1404.7,1174.24,1390.83,1174.24Z"/><path class="cls-4" d="M1344.49,1183.76a2.06,2.06,0,0,1-1.78-3.08l11.29-19.86a2.06,2.06,0,0,1,3.58,2l-8.48,14.91,25-9.42a2.06,2.06,0,1,1,1.46,3.85l-30.31,11.44A2,2,0,0,1,1344.49,1183.76Z"/><path class="cls-2" d="M1403.05,1136.89a5.25,5.25,0,1,0,5.25-5.25A5.25,5.25,0,0,0,1403.05,1136.89Z"/><path class="cls-2" d="M1385.58,1136.89a5.25,5.25,0,1,0,5.25-5.25A5.25,5.25,0,0,0,1385.58,1136.89Z"/><path class="cls-2" d="M1368.11,1136.89a5.25,5.25,0,1,0,5.25-5.25A5.25,5.25,0,0,0,1368.11,1136.89Z"/><polygon class="cls-6" points="663.02 206.7 663.02 182.53 693.6 151.95 693.6 176.28 663.02 206.7"/><path class="cls-4" d="M663,208.76A2.06,2.06,0,0,1,661,206.7V182.53a2.09,2.09,0,0,1,.6-1.46l30.59-30.58a2.06,2.06,0,0,1,3.51,1.46v24.33a2.06,2.06,0,0,1-4.12,0V156.91l-26.46,26.47V206.7A2.06,2.06,0,0,1,663,208.76Z"/><polygon class="cls-2" points="663.13 206.81 687.31 206.81 717.89 176.23 693.56 176.23 663.13 206.81"/><path class="cls-4" d="M687.31,208.87H663.13a2.06,2.06,0,0,1,0-4.11h23.32l26.47-26.47H693.56a2.06,2.06,0,1,1,0-4.11h24.33a2.05,2.05,0,0,1,1.45,3.51l-30.58,30.58A2.09,2.09,0,0,1,687.31,208.87Z"/><circle class="cls-6" cx="567.47" cy="302.37" r="114.25"/><path class="cls-4" d="M567.47,418.67a116,116,0,1,1,43.76-8.52A115.77,115.77,0,0,1,567.47,418.67Zm0-228.44A112.14,112.14,0,1,0,646.8,223,111.84,111.84,0,0,0,567.47,190.23Z"/><circle class="cls-5" cx="567.47" cy="302.37" r="91.08"/><path class="cls-4" d="M567.47,395.5a93.14,93.14,0,1,1,65.85-27.28A92.53,92.53,0,0,1,567.47,395.5Zm0-182.11a89,89,0,1,0,62.94,26A88.73,88.73,0,0,0,567.47,213.39Z"/><circle class="cls-6" cx="567.47" cy="302.37" r="65"/><path class="cls-4" d="M567.47,369.43a67.07,67.07,0,1,1,47.42-19.65A66.61,66.61,0,0,1,567.47,369.43Zm0-130A62.94,62.94,0,1,0,612,257.86,62.52,62.52,0,0,0,567.47,239.42Z"/><circle class="cls-5" cx="567.47" cy="302.37" r="36.54"/><path class="cls-4" d="M567.47,340.94a38.58,38.58,0,1,1,27.29-11.28A38.47,38.47,0,0,1,567.47,340.94Zm0-73A34.47,34.47,0,1,0,591.85,278,34.41,34.41,0,0,0,567.47,267.9Z"/><circle class="cls-2" cx="567.47" cy="302.37" r="14.33"/><path class="cls-4" d="M567.47,318.75a16.39,16.39,0,1,1,11.58-4.8A16.27,16.27,0,0,1,567.47,318.75Zm0-28.65a12.27,12.27,0,1,0,8.67,3.59A12.25,12.25,0,0,0,567.47,290.1Z"/><path class="cls-6" d="M567.47,302.37,693.62,176.21Z"/><path class="cls-4" d="M567.47,304.42a2.06,2.06,0,0,1-1.46-3.51L692.17,174.76a2.06,2.06,0,1,1,2.91,2.91L568.92,303.82A2.05,2.05,0,0,1,567.47,304.42Z"/><polygon class="cls-5" points="746.68 966.87 746.68 1076.46 566.21 1076.46 566.21 966.87 639.61 1020.02 656.45 1032.21 746.68 966.87"/><path class="cls-4" d="M746.68,1078.52H566.21a2.05,2.05,0,0,1-2.05-2.06V966.87a2.06,2.06,0,0,1,3.26-1.67l73.39,53.15,15.64,11.32,89-64.47a2.08,2.08,0,0,1,2.15-.16,2.05,2.05,0,0,1,1.12,1.83v109.59A2.06,2.06,0,0,1,746.68,1078.52Zm-178.41-4.11H744.62V970.9l-87,63a2.07,2.07,0,0,1-2.42,0l-16.84-12.2L568.27,970.9Z"/><polygon class="cls-2" points="746.68 966.87 656.45 1032.21 639.61 1020.02 566.21 966.87 746.68 966.87"/><path class="cls-4" d="M656.45,1034.27a2.08,2.08,0,0,1-1.21-.39l-16.84-12.2L565,968.54a2.06,2.06,0,0,1,1.2-3.73H746.68a2.06,2.06,0,0,1,1.21,3.73l-90.23,65.34A2.08,2.08,0,0,1,656.45,1034.27Zm-83.89-65.34,68.25,49.42,15.64,11.32,83.88-60.74Z"/><path class="cls-4" d="M587,1078.52a2.05,2.05,0,0,1-1.5-3.46l52.56-56.44a2.06,2.06,0,0,1,3,2.8l-52.57,56.45A2.05,2.05,0,0,1,587,1078.52Z"/><path class="cls-4" d="M726.7,1078.52a2.08,2.08,0,0,1-1.51-.65l-52.56-56.45a2.06,2.06,0,1,1,3-2.8l52.56,56.44a2.05,2.05,0,0,1-1.5,3.46Z"/><rect class="cls-6" x="250.4" y="676.74" width="218.72" height="270.6" rx="6.23"/><path class="cls-4" d="M462.89,949.41H256.62a8.29,8.29,0,0,1-8.28-8.29V683a8.28,8.28,0,0,1,8.28-8.28H462.89a8.29,8.29,0,0,1,8.28,8.28V941.12A8.3,8.3,0,0,1,462.89,949.41ZM256.62,678.8a4.17,4.17,0,0,0-4.17,4.17V941.12a4.17,4.17,0,0,0,4.17,4.17H462.89a4.17,4.17,0,0,0,4.16-4.17V683a4.17,4.17,0,0,0-4.16-4.17Z"/><rect class="cls-5" x="270.8" y="695.19" width="177.9" height="232.19"/><path class="cls-4" d="M448.7,929.44H270.8a2.05,2.05,0,0,1-2.05-2.06V695.19a2.05,2.05,0,0,1,2.05-2.05H448.7a2.05,2.05,0,0,1,2.06,2.05V927.38A2.06,2.06,0,0,1,448.7,929.44Zm-175.84-4.11H446.65V697.25H272.86Z"/><path class="cls-2" d="M382,669.17c17,.28,30.68,8.33,30.68,25.4a7.72,7.72,0,0,1-7.69,7.69H314.49a7.71,7.71,0,0,1-7.69-7.69c0-8.69,3.56-15,9.29-19.22,5.52-4,13.07-6,21.39-6.18Z"/><path class="cls-4" d="M405,704.32H314.49a9.75,9.75,0,0,1-9.74-9.75c0-8.83,3.5-16.05,10.13-20.88,5.68-4.15,13.49-6.42,22.57-6.57h0a2.06,2.06,0,0,1,0,4.11c-8.23.14-15.22,2.14-20.22,5.78-5.6,4.09-8.44,10-8.44,17.56a5.64,5.64,0,0,0,5.63,5.64H405a5.67,5.67,0,0,0,5.64-5.64c0-14.32-10.72-23-28.66-23.34a2.06,2.06,0,0,1,0-4.11h0c20.17.33,32.7,10.85,32.7,27.45a9.76,9.76,0,0,1-9.75,9.75Z"/><path class="cls-2" d="M382,669.17a23.25,23.25,0,1,0-45.52-6.71,22.84,22.84,0,0,0,1,6.71Z"/><path class="cls-4" d="M382,671.23a2.08,2.08,0,0,1-.6-.09,2.05,2.05,0,0,1-1.37-2.56,21,21,0,0,0,.9-6.12,21.2,21.2,0,0,0-42.39,0,21,21,0,0,0,.9,6.12,2.06,2.06,0,0,1-3.94,1.19,25,25,0,0,1-1.08-7.31A25.31,25.31,0,1,1,384,669.77,2.06,2.06,0,0,1,382,671.23Z"/><circle class="cls-5" cx="359.75" cy="662.46" r="11.57" transform="translate(-363.06 448.41) rotate(-45)"/><path class="cls-4" d="M359.75,676.09a13.63,13.63,0,1,1,13.63-13.63A13.65,13.65,0,0,1,359.75,676.09Zm0-23.15a9.52,9.52,0,1,0,9.52,9.52A9.53,9.53,0,0,0,359.75,652.94Z"/><path class="cls-4" d="M366.56,737H294.73a2.06,2.06,0,1,1,0-4.11h71.83a2.06,2.06,0,1,1,0,4.11Z"/><path class="cls-4" d="M424.18,751.71H294.73a2.06,2.06,0,0,1,0-4.12H424.18a2.06,2.06,0,0,1,0,4.12Z"/><path class="cls-4" d="M424.18,766.41H294.73a2.06,2.06,0,1,1,0-4.11H424.18a2.06,2.06,0,1,1,0,4.11Z"/><path class="cls-4" d="M424.18,781.12H294.73a2.06,2.06,0,1,1,0-4.11H424.18a2.06,2.06,0,1,1,0,4.11Z"/><path class="cls-4" d="M424.18,795.83H294.73a2.06,2.06,0,1,1,0-4.12H424.18a2.06,2.06,0,0,1,0,4.12Z"/><path class="cls-4" d="M347.16,810.53H294.73a2.06,2.06,0,1,1,0-4.11h52.43a2.06,2.06,0,1,1,0,4.11Z"/><path class="cls-4" d="M424.18,840H294.73a2.06,2.06,0,0,1,0-4.12H424.18a2.06,2.06,0,0,1,0,4.12Z"/><path class="cls-4" d="M424.18,854.65H294.73a2.06,2.06,0,1,1,0-4.11H424.18a2.06,2.06,0,1,1,0,4.11Z"/><path class="cls-4" d="M424.18,869.36H294.73a2.06,2.06,0,1,1,0-4.11H424.18a2.06,2.06,0,1,1,0,4.11Z"/><path class="cls-4" d="M424.18,884.07H294.73a2.06,2.06,0,1,1,0-4.12H424.18a2.06,2.06,0,1,1,0,4.12Z"/><path class="cls-4" d="M402.82,898.77H294.73a2.06,2.06,0,1,1,0-4.11H402.82a2.06,2.06,0,1,1,0,4.11Z"/></g></g></svg>