<svg width="328" height="132" viewBox="0 0 328 132" fill="none" xmlns="http://www.w3.org/2000/svg">
<rect width="330" height="132" transform="translate(-1)" fill="#8EC2F2"/>
<rect x="49" y="30" width="72" height="72" rx="36" fill="white"/>
<g clip-path="url(#clip0_1579:496)">
<path fill-rule="evenodd" clip-rule="evenodd" d="M96.4584 75.3333C96.4584 75.3333 98 75.3333 98 73.7777C98 72.2222 96.4584 67.5555 90.2917 67.5555C84.125 67.5555 82.5834 72.2222 82.5834 73.7777C82.5834 75.3333 84.125 75.3333 84.125 75.3333H96.4584ZM84.159 73.7777H96.4245C96.4317 73.7769 96.4389 73.7759 96.446 73.7746L96.4584 73.7715C96.4553 73.3608 96.2009 72.1693 95.2867 71.096C94.4357 70.0895 92.9403 69.1111 90.2917 69.1111C87.6447 69.1111 86.1492 70.0911 85.2967 71.096C84.3825 72.1693 84.1266 73.3624 84.125 73.7715C84.1363 73.7737 84.1476 73.7758 84.159 73.7777ZM90.2917 64.4444C91.1095 64.4444 91.8937 64.1166 92.472 63.5332C93.0502 62.9497 93.375 62.1584 93.375 61.3333C93.375 60.5082 93.0502 59.7169 92.472 59.1334C91.8937 58.55 91.1095 58.2222 90.2917 58.2222C89.474 58.2222 88.6897 58.55 88.1115 59.1334C87.5332 59.7169 87.2084 60.5082 87.2084 61.3333C87.2084 62.1584 87.5332 62.9497 88.1115 63.5332C88.6897 64.1166 89.474 64.4444 90.2917 64.4444ZM94.9167 61.3333C94.9167 61.9461 94.7971 62.553 94.5646 63.1191C94.3322 63.6853 93.9915 64.1998 93.5621 64.6331C93.1326 65.0665 92.6227 65.4102 92.0616 65.6447C91.5005 65.8793 90.8991 66 90.2917 66C89.6843 66 89.0829 65.8793 88.5218 65.6447C87.9607 65.4102 87.4508 65.0665 87.0213 64.6331C86.5919 64.1998 86.2512 63.6853 86.0188 63.1191C85.7863 62.553 85.6667 61.9461 85.6667 61.3333C85.6667 60.0956 86.154 58.9086 87.0213 58.0335C87.8887 57.1583 89.0651 56.6666 90.2917 56.6666C91.5183 56.6666 92.6947 57.1583 93.5621 58.0335C94.4294 58.9086 94.9167 60.0956 94.9167 61.3333ZM84.0264 67.9911C83.4097 67.7951 82.774 67.6663 82.1301 67.6068C81.7683 67.5721 81.4051 67.555 81.0417 67.5555C74.875 67.5555 73.3334 72.2222 73.3334 73.7777C73.3334 74.8153 73.8467 75.3333 74.875 75.3333H81.3747C81.1462 74.8477 81.0322 74.3152 81.0417 73.7777C81.0417 72.2066 81.6229 70.6013 82.7221 69.2604C83.0967 68.8031 83.533 68.3753 84.0264 67.9911ZM80.9184 69.1111C78.3469 69.1422 76.8869 70.1066 76.0467 71.096C75.1263 72.1755 74.875 73.3717 74.875 73.7777H79.5C79.5 72.1522 79.998 70.5328 80.9184 69.1111ZM75.6459 62.1111C75.6459 60.8734 76.1331 59.6864 77.0005 58.8112C77.8679 57.9361 79.0442 57.4444 80.2709 57.4444C81.4975 57.4444 82.6739 57.9361 83.5412 58.8112C84.4086 59.6864 84.8959 60.8734 84.8959 62.1111C84.8959 63.3487 84.4086 64.5357 83.5412 65.4109C82.6739 66.2861 81.4975 66.7777 80.2709 66.7777C79.0442 66.7777 77.8679 66.2861 77.0005 65.4109C76.1331 64.5357 75.6459 63.3487 75.6459 62.1111ZM80.2709 59C79.4531 59 78.6689 59.3277 78.0906 59.9112C77.5124 60.4946 77.1875 61.286 77.1875 62.1111C77.1875 62.9362 77.5124 63.7275 78.0906 64.311C78.6689 64.8944 79.4531 65.2222 80.2709 65.2222C81.0886 65.2222 81.8729 64.8944 82.4511 64.311C83.0294 63.7275 83.3542 62.9362 83.3542 62.1111C83.3542 61.286 83.0294 60.4946 82.4511 59.9112C81.8729 59.3277 81.0886 59 80.2709 59Z" fill="#23A6F0"/>
</g>
<path d="M144.32 60.816H146.816V72H144.32V67.6H139.872V72H137.376V60.816H139.872V65.488H144.32V60.816ZM156.88 70.752C155.909 71.6693 154.768 72.128 153.456 72.128C152.154 72.128 151.077 71.728 150.224 70.928C149.37 70.1173 148.944 69.0347 148.944 67.68C148.944 66.3253 149.376 65.248 150.24 64.448C151.114 63.648 152.144 63.248 153.328 63.248C154.512 63.248 155.514 63.6053 156.336 64.32C157.168 65.0347 157.584 66.016 157.584 67.264V68.544H151.312C151.386 69.0133 151.632 69.3973 152.048 69.696C152.464 69.9947 152.933 70.144 153.456 70.144C154.298 70.144 154.992 69.8613 155.536 69.296L156.88 70.752ZM155.152 66.832C155.098 66.32 154.906 65.9253 154.576 65.648C154.245 65.3707 153.84 65.232 153.36 65.232C152.89 65.232 152.458 65.376 152.064 65.664C151.669 65.952 151.44 66.3413 151.376 66.832H155.152ZM166.726 72H164.47V70.96C163.851 71.7387 163.083 72.128 162.166 72.128C161.259 72.128 160.497 71.8667 159.878 71.344C159.259 70.8107 158.95 70.1067 158.95 69.232C158.95 68.3467 159.27 67.6853 159.91 67.248C160.55 66.8107 161.425 66.592 162.534 66.592H164.326V66.544C164.326 65.6267 163.841 65.168 162.87 65.168C162.454 65.168 162.011 65.2533 161.542 65.424C161.083 65.584 160.694 65.7867 160.374 66.032L159.302 64.48C160.433 63.6587 161.723 63.248 163.174 63.248C164.219 63.248 165.073 63.5093 165.734 64.032C166.395 64.5547 166.726 65.3813 166.726 66.512V72ZM164.31 68.72V68.304H162.806C161.846 68.304 161.366 68.6027 161.366 69.2C161.366 69.5093 161.478 69.7493 161.702 69.92C161.937 70.08 162.267 70.16 162.694 70.16C163.121 70.16 163.494 70.032 163.814 69.776C164.145 69.5093 164.31 69.1573 164.31 68.72ZM171.414 72H169.014V60.128H171.414V72ZM176.65 65.12V68.976C176.65 69.3067 176.735 69.568 176.906 69.76C177.077 69.9413 177.279 70.032 177.514 70.032C177.962 70.032 178.341 69.8293 178.65 69.424L179.546 71.104C178.799 71.7867 178.01 72.128 177.178 72.128C176.357 72.128 175.658 71.856 175.082 71.312C174.517 70.768 174.234 70.0267 174.234 69.088V65.12H173.226V63.392H174.234V60.816H176.65V63.392H178.73V65.12H176.65ZM183.333 67.36V72H180.933V60.128H183.333V64.352C184.058 63.616 184.869 63.248 185.765 63.248C186.672 63.248 187.434 63.568 188.053 64.208C188.672 64.848 188.981 65.7013 188.981 66.768V72H186.581V67.296C186.581 65.9733 186.096 65.312 185.125 65.312C184.645 65.312 184.224 65.488 183.861 65.84C183.509 66.1813 183.333 66.688 183.333 67.36ZM206.914 66.336C206.914 67.4987 206.616 68.544 206.018 69.472C205.432 70.4 204.637 71.0933 203.634 71.552C203.73 71.712 203.88 71.8507 204.082 71.968C204.296 72.0747 204.514 72.128 204.738 72.128C204.962 72.128 205.181 72.0907 205.394 72.016C205.608 71.952 205.778 71.872 205.906 71.776C206.184 71.552 206.381 71.3333 206.498 71.12L207.794 72.672C206.877 73.6427 205.73 74.128 204.354 74.128C203.714 74.128 203.085 73.952 202.466 73.6C201.848 73.248 201.373 72.752 201.042 72.112C199.389 72.112 197.997 71.5627 196.866 70.464C195.736 69.3547 195.17 67.9787 195.17 66.336C195.17 64.6933 195.736 63.3227 196.866 62.224C197.997 61.1147 199.389 60.56 201.042 60.56C202.696 60.56 204.088 61.1147 205.218 62.224C206.349 63.3227 206.914 64.6933 206.914 66.336ZM204.37 66.352C204.37 65.3493 204.05 64.496 203.41 63.792C202.77 63.088 201.981 62.736 201.042 62.736C200.114 62.736 199.33 63.088 198.69 63.792C198.05 64.496 197.73 65.3493 197.73 66.352C197.73 67.344 198.05 68.192 198.69 68.896C199.33 69.5893 200.114 69.936 201.042 69.936C201.981 69.936 202.77 69.5893 203.41 68.896C204.05 68.192 204.37 67.344 204.37 66.352ZM214.457 68.032V63.392H216.873V72H214.457V70.864C213.859 71.7067 213.086 72.128 212.137 72.128C211.198 72.128 210.409 71.8347 209.769 71.248C209.129 70.6507 208.809 69.7707 208.809 68.608V63.392H211.225V68.08C211.225 69.4027 211.71 70.064 212.681 70.064C213.161 70.064 213.577 69.8933 213.929 69.552C214.281 69.2 214.457 68.6933 214.457 68.032ZM226.695 70.752C225.724 71.6693 224.583 72.128 223.271 72.128C221.97 72.128 220.892 71.728 220.039 70.928C219.186 70.1173 218.759 69.0347 218.759 67.68C218.759 66.3253 219.191 65.248 220.055 64.448C220.93 63.648 221.959 63.248 223.143 63.248C224.327 63.248 225.33 63.6053 226.151 64.32C226.983 65.0347 227.399 66.016 227.399 67.264V68.544H221.127C221.202 69.0133 221.447 69.3973 221.863 69.696C222.279 69.9947 222.748 70.144 223.271 70.144C224.114 70.144 224.807 69.8613 225.351 69.296L226.695 70.752ZM224.967 66.832C224.914 66.32 224.722 65.9253 224.391 65.648C224.06 65.3707 223.655 65.232 223.175 65.232C222.706 65.232 222.274 65.376 221.879 65.664C221.484 65.952 221.255 66.3413 221.191 66.832H224.967ZM233.758 65.504C233.043 65.504 232.51 65.76 232.158 66.272C231.806 66.7733 231.63 67.44 231.63 68.272V72H229.23V63.392H231.63V64.528C231.939 64.176 232.323 63.8773 232.782 63.632C233.251 63.3867 233.726 63.2587 234.206 63.248L234.222 65.504H233.758ZM238.308 72H235.908V63.392H238.308V72ZM236.1 62.304C235.833 62.0267 235.7 61.6907 235.7 61.296C235.7 60.9013 235.833 60.5707 236.1 60.304C236.377 60.0267 236.713 59.888 237.108 59.888C237.503 59.888 237.833 60.0267 238.1 60.304C238.377 60.5707 238.516 60.9013 238.516 61.296C238.516 61.6907 238.377 62.0267 238.1 62.304C237.833 62.5707 237.503 62.704 237.108 62.704C236.713 62.704 236.377 62.5707 236.1 62.304ZM248.136 70.752C247.165 71.6693 246.024 72.128 244.712 72.128C243.41 72.128 242.333 71.728 241.48 70.928C240.626 70.1173 240.2 69.0347 240.2 67.68C240.2 66.3253 240.632 65.248 241.496 64.448C242.37 63.648 243.4 63.248 244.584 63.248C245.768 63.248 246.77 63.6053 247.592 64.32C248.424 65.0347 248.84 66.016 248.84 67.264V68.544H242.568C242.642 69.0133 242.888 69.3973 243.304 69.696C243.72 69.9947 244.189 70.144 244.712 70.144C245.554 70.144 246.248 69.8613 246.792 69.296L248.136 70.752ZM246.408 66.832C246.354 66.32 246.162 65.9253 245.832 65.648C245.501 65.3707 245.096 65.232 244.616 65.232C244.146 65.232 243.714 65.376 243.32 65.664C242.925 65.952 242.696 66.3413 242.632 66.832H246.408ZM257.15 69.328C257.15 70.1707 256.836 70.848 256.206 71.36C255.588 71.872 254.798 72.128 253.838 72.128C253.198 72.128 252.532 72.016 251.838 71.792C251.145 71.5573 250.521 71.216 249.966 70.768L251.022 69.264C251.918 69.9573 252.873 70.304 253.886 70.304C254.196 70.304 254.441 70.2453 254.622 70.128C254.804 70 254.894 69.8347 254.894 69.632C254.894 69.4293 254.766 69.2427 254.51 69.072C254.265 68.9013 253.902 68.7413 253.422 68.592C252.953 68.4427 252.59 68.3147 252.334 68.208C252.089 68.1013 251.806 67.9467 251.486 67.744C250.836 67.3387 250.51 66.7413 250.51 65.952C250.51 65.152 250.83 64.5013 251.47 64C252.11 63.4987 252.937 63.248 253.95 63.248C254.964 63.248 255.977 63.5893 256.99 64.272L256.094 65.872C255.348 65.36 254.601 65.104 253.854 65.104C253.118 65.104 252.75 65.3067 252.75 65.712C252.75 65.936 252.868 66.112 253.102 66.24C253.337 66.368 253.726 66.5173 254.27 66.688C254.814 66.8587 255.198 66.992 255.422 67.088C255.657 67.1733 255.934 67.312 256.254 67.504C256.852 67.8667 257.15 68.4747 257.15 69.328Z" fill="white"/>
<defs>
<clipPath id="clip0_1579:496">
<rect width="24" height="19.7647" fill="white" transform="translate(73.5 56)"/>
</clipPath>
</defs>
</svg>
