<svg width="72" height="72" viewBox="0 0 72 72" fill="none" xmlns="http://www.w3.org/2000/svg">
<rect width="72" height="72" rx="36" fill="white"/>
<g clip-path="url(#clip0_1579:497)">
<path fill-rule="evenodd" clip-rule="evenodd" d="M47.4584 45.3333C47.4584 45.3333 49 45.3333 49 43.7777C49 42.2222 47.4584 37.5555 41.2917 37.5555C35.125 37.5555 33.5834 42.2222 33.5834 43.7777C33.5834 45.3333 35.125 45.3333 35.125 45.3333H47.4584ZM35.159 43.7777H47.4245C47.4317 43.7769 47.4389 43.7758 47.446 43.7746L47.4584 43.7715C47.4553 43.3608 47.2009 42.1693 46.2867 41.096C45.4357 40.0895 43.9403 39.1111 41.2917 39.1111C38.6447 39.1111 37.1492 40.0911 36.2967 41.096C35.3825 42.1693 35.1266 43.3624 35.125 43.7715C35.1363 43.7737 35.1476 43.7758 35.159 43.7777V43.7777ZM41.2917 34.4444C42.1095 34.4444 42.8937 34.1166 43.472 33.5332C44.0502 32.9497 44.375 32.1584 44.375 31.3333C44.375 30.5082 44.0502 29.7169 43.472 29.1334C42.8937 28.55 42.1095 28.2222 41.2917 28.2222C40.474 28.2222 39.6897 28.55 39.1115 29.1334C38.5332 29.7169 38.2084 30.5082 38.2084 31.3333C38.2084 32.1584 38.5332 32.9497 39.1115 33.5332C39.6897 34.1166 40.474 34.4444 41.2917 34.4444ZM45.9167 31.3333C45.9167 31.9461 45.7971 32.553 45.5646 33.1191C45.3322 33.6853 44.9915 34.1998 44.5621 34.6331C44.1326 35.0665 43.6227 35.4102 43.0616 35.6447C42.5005 35.8793 41.8991 36 41.2917 36C40.6843 36 40.0829 35.8793 39.5218 35.6447C38.9607 35.4102 38.4508 35.0665 38.0213 34.6331C37.5919 34.1998 37.2512 33.6853 37.0188 33.1191C36.7863 32.553 36.6667 31.9461 36.6667 31.3333C36.6667 30.0956 37.154 28.9086 38.0213 28.0335C38.8887 27.1583 40.0651 26.6666 41.2917 26.6666C42.5183 26.6666 43.6947 27.1583 44.5621 28.0335C45.4294 28.9086 45.9167 30.0956 45.9167 31.3333V31.3333ZM35.0264 37.9911C34.4097 37.7951 33.774 37.6663 33.1301 37.6068C32.7683 37.5721 32.4051 37.555 32.0417 37.5555C25.875 37.5555 24.3334 42.2222 24.3334 43.7777C24.3334 44.8153 24.8467 45.3333 25.875 45.3333H32.3747C32.1462 44.8477 32.0322 44.3152 32.0417 43.7777C32.0417 42.2066 32.6229 40.6013 33.7221 39.2604C34.0967 38.8031 34.533 38.3753 35.0264 37.9911ZM31.9184 39.1111C29.3469 39.1422 27.8869 40.1066 27.0467 41.096C26.1263 42.1755 25.875 43.3717 25.875 43.7777H30.5C30.5 42.1522 30.998 40.5328 31.9184 39.1111ZM26.6459 32.1111C26.6459 30.8734 27.1331 29.6864 28.0005 28.8112C28.8679 27.9361 30.0442 27.4444 31.2709 27.4444C32.4975 27.4444 33.6739 27.9361 34.5412 28.8112C35.4086 29.6864 35.8959 30.8734 35.8959 32.1111C35.8959 33.3487 35.4086 34.5357 34.5412 35.4109C33.6739 36.2861 32.4975 36.7777 31.2709 36.7777C30.0442 36.7777 28.8679 36.2861 28.0005 35.4109C27.1331 34.5357 26.6459 33.3487 26.6459 32.1111V32.1111ZM31.2709 29C30.4531 29 29.6689 29.3277 29.0906 29.9112C28.5124 30.4946 28.1875 31.286 28.1875 32.1111C28.1875 32.9362 28.5124 33.7275 29.0906 34.311C29.6689 34.8944 30.4531 35.2222 31.2709 35.2222C32.0886 35.2222 32.8729 34.8944 33.4511 34.311C34.0294 33.7275 34.3542 32.9362 34.3542 32.1111C34.3542 31.286 34.0294 30.4946 33.4511 29.9112C32.8729 29.3277 32.0886 29 31.2709 29Z" fill="#23A6F0"/>
</g>
<defs>
<clipPath id="clip0_1579:497">
<rect width="24" height="19.7647" fill="white" transform="translate(24.5 26)"/>
</clipPath>
</defs>
</svg>
